<svg width="100" height="100" viewBox="0 0 100 100" fill="none" xmlns="http://www.w3.org/2000/svg">
<circle cx="50" cy="50" r="50" fill="#009688"/>
<path d="M20.0128 66V35.4545H31.4673C33.8139 35.4545 35.7827 35.892 37.3736 36.767C38.9744 37.642 40.1825 38.8452 40.9979 40.3764C41.8232 41.8977 42.2358 43.6278 42.2358 45.5668C42.2358 47.5256 41.8232 49.2656 40.9979 50.7869C40.1726 52.3082 38.9545 53.5064 37.3438 54.3814C35.733 55.2464 33.7493 55.679 31.3928 55.679H23.8011V51.13H30.647C32.0192 51.13 33.1428 50.8913 34.0178 50.4141C34.8928 49.9368 35.5391 49.2805 35.9567 48.4453C36.3842 47.6101 36.598 46.6506 36.598 45.5668C36.598 44.483 36.3842 43.5284 35.9567 42.7031C35.5391 41.8778 34.8878 41.2365 34.0028 40.7791C33.1278 40.3118 31.9993 40.0781 30.6172 40.0781H25.5462V66H20.0128ZM47.0421 35.4545H53.8134L62.8816 57.5881H63.2395L72.3077 35.4545H79.079V66H73.7694V45.0149H73.486L65.0442 65.9105H61.0769L52.6351 44.9702H52.3517V66H47.0421V35.4545Z" fill="white"/>
</svg>
